# xmcd
#
# Track frame offsets: 
#        150
#        23112
#        47557
#        78862
#        101137
#        120522
#        140002
#        165740
#        193060
#        220102
#
# Disc length: 3131 seconds
#
# Revision: 7
# Processed by: cddbd v1.5.2PL0 Copyright (c) Steve Scherf et al.
# Submitted via: ExactAudioCopyFreeDBPlugin 1.0
#
DISCID=840c390a
DTITLE=David Benoit_Russ Freeman - The Benoit - Freeman Project
DYEAR=1994
DGENRE=Fusion
TTITLE0=Reunion
TTITLE1=When She Believed in Me
TTITLE2=Mediterranean Nights
TTITLE3=Swept Away
TTITLE4=The End of Our Season
TTITLE5=After the Love Has Gone
TTITLE6=Smartypants
TTITLE7=It's the Thought That Counts
TTITLE8=Mirage
TTITLE9=That's All I Could Say
EXTD=1994 GRP Records GRD-9739 YEAR: 1994
EXTT0=
EXTT1=
EXTT2=
EXTT3=
EXTT4=
EXTT5=
EXTT6=
EXTT7=
EXTT8=
EXTT9=
PLAYORDER=
